# xmcd
#
# Track frame offsets:
#	225
#	17208
#	33520
#	50087
#
# Disc length: 851 seconds
#
# Revision: 0
# Processed by: cddbd v1.5.2PL0 Copyright (c) Steve Scherf et al.
# Submitted via: audiograbber 1.83.01
#
DISCID=31035004
DTITLE=Jeff Callery - Jeff Callery
DYEAR=1900
DGENRE=Country
TTITLE0=Win Some Lose Some
TTITLE1=Full Speed Ahead
TTITLE2=If I Let Myself
TTITLE3=I Ain't Never
EXTD=
EXTT0=
EXTT1=
EXTT2=
EXTT3=
PLAYORDER=
